<svg width="800" height="1040" viewBox="0 0 800 1040" fill="none" xmlns="http://www.w3.org/2000/svg">
  <defs>
    <linearGradient id="bg" x1="88" y1="56" x2="700" y2="998" gradientUnits="userSpaceOnUse">
      <stop stop-color="#161D1B"/>
      <stop offset="1" stop-color="#081112"/>
    </linearGradient>
    <linearGradient id="dress" x1="400" y1="330" x2="430" y2="882" gradientUnits="userSpaceOnUse">
      <stop stop-color="#9BE7FF"/>
      <stop offset="1" stop-color="#245A79"/>
    </linearGradient>
  </defs>
  <rect width="800" height="1040" rx="52" fill="#091010"/>
  <rect x="34" y="34" width="732" height="972" rx="40" fill="url(#bg)"/>
  <circle cx="0" cy="0" r="0" fill="#000"/>

  <circle cx="400" cy="286" r="82" fill="#F1D4BE"/>
  <path d="M318 277c33-46 72-66 118-62 17 1 37 8 61 22-41 13-77 30-111 51-18-8-41-12-68-11z" fill="#071516"/>
  <path d="M255 386c17-36 64-62 137-62 70 0 116 24 143 66l42 67c25 40 38 87 38 134v175c0 29-23 52-52 52H258c-29 0-52-23-52-52V597c0-49 14-96 41-137l8-12z" fill="url(#dress)"/>
  <path d="M280 535c47 8 88 11 123 10 58-2 109-12 153-31" stroke="#EEF9FF" stroke-opacity=".44" stroke-width="14" stroke-linecap="round"/>
  <text x="80" y="110" fill="#CDE8FA" fill-opacity=".82" font-family="Arial, sans-serif" font-size="24" font-weight="700" letter-spacing="4">WESTERN DROP</text>
  <text x="80" y="930" fill="white" font-family="Arial, sans-serif" font-size="46" font-weight="700">Lifestyle Look / 03</text>
  <text x="80" y="968" fill="#CDE8FA" fill-opacity=".72" font-family="Arial, sans-serif" font-size="24">Campaign frame for catalog and ads</text>
</svg>
