<svg width="800" height="1040" viewBox="0 0 800 1040" fill="none" xmlns="http://www.w3.org/2000/svg">
  <defs>
    <linearGradient id="bg" x1="88" y1="56" x2="700" y2="998" gradientUnits="userSpaceOnUse">
      <stop stop-color="#172220"/>
      <stop offset="1" stop-color="#07100F"/>
    </linearGradient>
    <linearGradient id="dress" x1="400" y1="330" x2="430" y2="882" gradientUnits="userSpaceOnUse">
      <stop stop-color="#73E3D1"/>
      <stop offset="1" stop-color="#147F73"/>
    </linearGradient>
  </defs>
  <rect width="800" height="1040" rx="52" fill="#091010"/>
  <rect x="34" y="34" width="732" height="972" rx="40" fill="url(#bg)"/>
  <circle cx="528" cy="204" r="104" fill="#143432"/>
  <circle cx="304" cy="274" r="176" fill="#0F2322" />
  <circle cx="400" cy="286" r="82" fill="#E8D4BE"/>
  <path d="M332 272c18-38 54-61 97-61 39 0 72 20 92 54-28-13-53-20-76-20-45 0-79 11-113 27z" fill="#061B18"/>
  <path d="M319 332c0-45 36-81 81-81s81 36 81 81v31c0 27 11 52 30 71l41 40c32 31 50 74 50 119v151c0 33-27 60-60 60H258c-33 0-60-27-60-60V593c0-45 18-88 50-119l41-40c19-19 30-44 30-71v-31z" fill="url(#dress)"/>
  <path d="M275 380c17 30 50 50 85 50s68-20 85-50" stroke="#CFFCF6" stroke-opacity=".44" stroke-width="14" stroke-linecap="round"/>
  <text x="80" y="110" fill="#CDE8FA" fill-opacity=".82" font-family="Arial, sans-serif" font-size="24" font-weight="700" letter-spacing="4">ETHNIC EDITORIAL</text>
  <text x="80" y="930" fill="white" font-family="Arial, sans-serif" font-size="46" font-weight="700">Saree Look / 01</text>
  <text x="80" y="968" fill="#CDE8FA" fill-opacity=".72" font-family="Arial, sans-serif" font-size="24">Studio-safe on-model output</text>
</svg>
