<svg width="800" height="1040" viewBox="0 0 800 1040" fill="none" xmlns="http://www.w3.org/2000/svg">
  <defs>
    <linearGradient id="bg" x1="88" y1="56" x2="700" y2="998" gradientUnits="userSpaceOnUse">
      <stop stop-color="#191E22"/>
      <stop offset="1" stop-color="#081111"/>
    </linearGradient>
    <linearGradient id="dress" x1="400" y1="330" x2="430" y2="882" gradientUnits="userSpaceOnUse">
      <stop stop-color="#7DEAF7"/>
      <stop offset="1" stop-color="#16738C"/>
    </linearGradient>
  </defs>
  <rect width="800" height="1040" rx="52" fill="#091010"/>
  <rect x="34" y="34" width="732" height="972" rx="40" fill="url(#bg)"/>
  <circle cx="0" cy="0" r="0" fill="#000"/>

  <circle cx="400" cy="286" r="82" fill="#EDD1C0"/>
  <path d="M323 260c24-43 59-62 103-58 31 3 62 18 91 45-42 0-82 10-120 30-22-10-47-16-74-17z" fill="#0A1517"/>
  <path d="M258 384c0-42 34-76 76-76h129c42 0 76 34 76 76v74c0 17 5 34 14 48l56 89c13 20 20 44 20 68v142c0 29-23 52-52 52H272c-29 0-52-23-52-52V663c0-24 7-48 20-68l56-89c9-14 14-31 14-48v-74z" fill="url(#dress)"/>
  <path d="M282 530c51 7 98 8 142 3 29-4 63-13 101-29" stroke="#EEFCFF" stroke-opacity=".44" stroke-width="14" stroke-linecap="round"/>
  <text x="80" y="110" fill="#CDE8FA" fill-opacity=".82" font-family="Arial, sans-serif" font-size="24" font-weight="700" letter-spacing="4">BRIDAL CAMPAIGN</text>
  <text x="80" y="930" fill="white" font-family="Arial, sans-serif" font-size="46" font-weight="700">Bridal Edit / 08</text>
  <text x="80" y="968" fill="#CDE8FA" fill-opacity=".72" font-family="Arial, sans-serif" font-size="24">High-polish editorial without set build</text>
</svg>
