<svg width="800" height="1040" viewBox="0 0 800 1040" fill="none" xmlns="http://www.w3.org/2000/svg">
  <defs>
    <linearGradient id="bg" x1="88" y1="56" x2="700" y2="998" gradientUnits="userSpaceOnUse">
      <stop stop-color="#181B20"/>
      <stop offset="1" stop-color="#091010"/>
    </linearGradient>
    <linearGradient id="dress" x1="400" y1="330" x2="430" y2="882" gradientUnits="userSpaceOnUse">
      <stop stop-color="#9CFFB7"/>
      <stop offset="1" stop-color="#2C8A47"/>
    </linearGradient>
  </defs>
  <rect width="800" height="1040" rx="52" fill="#091010"/>
  <rect x="34" y="34" width="732" height="972" rx="40" fill="url(#bg)"/>
  <circle cx="552" cy="216" r="102" fill="#102E27"/>
  <circle cx="254" cy="228" r="94" fill="#141E1F" />
  <circle cx="400" cy="286" r="82" fill="#EDD2BF"/>
  <path d="M324 246c32-42 66-61 108-61 27 0 58 9 94 31-49 16-84 33-107 53-30-12-61-20-95-23z" fill="#0A1713"/>
  <path d="M248 381c0-29 21-53 49-57l54-9c31-5 60-18 86-38 23-18 53-28 87-28 30 0 55 24 55 54v515H217V435c0-20 13-39 31-47z" fill="url(#dress)"/>
  <path d="M302 520c48 15 92 21 130 17 38-4 79-17 122-40" stroke="#E7FFF0" stroke-opacity=".44" stroke-width="14" stroke-linecap="round"/>
  <text x="80" y="110" fill="#CDE8FA" fill-opacity=".82" font-family="Arial, sans-serif" font-size="24" font-weight="700" letter-spacing="4">ACTIVE CATALOG</text>
  <text x="80" y="930" fill="white" font-family="Arial, sans-serif" font-size="46" font-weight="700">Sport Edit / 04</text>
  <text x="80" y="968" fill="#CDE8FA" fill-opacity=".72" font-family="Arial, sans-serif" font-size="24">Fit-focused catalog visual</text>
</svg>
