<svg width="800" height="1040" viewBox="0 0 800 1040" fill="none" xmlns="http://www.w3.org/2000/svg">
  <defs>
    <linearGradient id="bg" x1="88" y1="56" x2="700" y2="998" gradientUnits="userSpaceOnUse">
      <stop stop-color="#152224"/>
      <stop offset="1" stop-color="#071011"/>
    </linearGradient>
    <linearGradient id="dress" x1="400" y1="330" x2="430" y2="882" gradientUnits="userSpaceOnUse">
      <stop stop-color="#EED7A5"/>
      <stop offset="1" stop-color="#91713A"/>
    </linearGradient>
  </defs>
  <rect width="800" height="1040" rx="52" fill="#091010"/>
  <rect x="34" y="34" width="732" height="972" rx="40" fill="url(#bg)"/>
  <circle cx="250" cy="190" r="100" fill="#102629"/>
  <circle cx="554" cy="294" r="118" fill="#0F1C1B" />
  <circle cx="400" cy="286" r="82" fill="#EAD2BF"/>
  <path d="M326 252c32-38 64-55 99-52 28 1 58 14 93 40-40 2-80 14-118 35-28-11-53-19-74-23z" fill="#061717"/>
  <path d="M248 400c0-46 37-83 83-83h134c46 0 83 37 83 83v329c0 49-39 88-88 88H336c-49 0-88-39-88-88V400z" fill="url(#dress)"/>
  <path d="M286 566c57 7 103 6 139-1 34-6 67-17 99-31" stroke="#FFF8E6" stroke-opacity=".44" stroke-width="14" stroke-linecap="round"/>
  <text x="80" y="110" fill="#CDE8FA" fill-opacity=".82" font-family="Arial, sans-serif" font-size="24" font-weight="700" letter-spacing="4">STOREFRONT HERO</text>
  <text x="80" y="930" fill="white" font-family="Arial, sans-serif" font-size="46" font-weight="700">Catalog Hero / 09</text>
  <text x="80" y="968" fill="#CDE8FA" fill-opacity=".72" font-family="Arial, sans-serif" font-size="24">Launch-ready visual for every SKU</text>
</svg>
