<svg width="800" height="1040" viewBox="0 0 800 1040" fill="none" xmlns="http://www.w3.org/2000/svg">
  <defs>
    <linearGradient id="bg" x1="88" y1="56" x2="700" y2="998" gradientUnits="userSpaceOnUse">
      <stop stop-color="#191A1E"/>
      <stop offset="1" stop-color="#0A0F11"/>
    </linearGradient>
    <linearGradient id="dress" x1="400" y1="330" x2="430" y2="882" gradientUnits="userSpaceOnUse">
      <stop stop-color="#F3A7D1"/>
      <stop offset="1" stop-color="#81436D"/>
    </linearGradient>
  </defs>
  <rect width="800" height="1040" rx="52" fill="#091010"/>
  <rect x="34" y="34" width="732" height="972" rx="40" fill="url(#bg)"/>
  <circle cx="400" cy="516" r="276" fill="#11181A"/>

  <circle cx="400" cy="286" r="82" fill="#EFD2C0"/>
  <path d="M329 256c18-25 38-41 61-48 30-10 68-6 113 13-26 8-53 27-82 57-24-10-55-17-92-22z" fill="#15161D"/>
  <path d="M228 386c0-37 29-67 66-69l48-3c21-1 41-9 57-23l42-36 112 26c11 3 22 7 31 14 21 15 34 39 34 66v422H228V386z" fill="url(#dress)"/>
  <path d="M270 562c51-5 103-7 157-4 46 2 88 8 126 18" stroke="#FFF0FA" stroke-opacity=".44" stroke-width="14" stroke-linecap="round"/>
  <text x="80" y="110" fill="#CDE8FA" fill-opacity=".82" font-family="Arial, sans-serif" font-size="24" font-weight="700" letter-spacing="4">FESTIVE DROP</text>
  <text x="80" y="930" fill="white" font-family="Arial, sans-serif" font-size="46" font-weight="700">Occasionwear / 05</text>
  <text x="80" y="968" fill="#CDE8FA" fill-opacity=".72" font-family="Arial, sans-serif" font-size="24">Premium festive catalog output</text>
</svg>
